<svg width="20" height="20" viewBox="0 0 20 20" fill="none" xmlns="http://www.w3.org/2000/svg">
<g id="log-in-03">
<path id="Icon" d="M5 14.1667C5 14.4594 5 14.6058 5.01306 14.733C5.12146 15.7895 5.8855 16.6622 6.91838 16.9093C7.04279 16.939 7.18792 16.9584 7.47807 16.9971L12.9713 17.7295C14.535 17.938 15.3169 18.0423 15.9237 17.801C16.4565 17.5891 16.9002 17.2006 17.1806 16.7005C17.5 16.1309 17.5 15.3421 17.5 13.7646V6.2354C17.5 4.65786 17.5 3.8691 17.1806 3.29949C16.9002 2.79939 16.4565 2.41087 15.9237 2.19903C15.3169 1.95775 14.535 2.062 12.9713 2.27049L7.47807 3.00292C7.18788 3.04162 7.04279 3.06096 6.91838 3.09072C5.8855 3.3378 5.12145 4.21048 5.01306 5.26695C5 5.39421 5 5.54058 5 5.83333M10 6.66667L13.3333 10M13.3333 10L10 13.3333M13.3333 10H2.5" stroke="#FF4405" stroke-width="1.67" stroke-linecap="round" stroke-linejoin="round"/>
</g>
</svg>
