<svg width="21" height="20" viewBox="0 0 21 20" fill="none" xmlns="http://www.w3.org/2000/svg">
<path d="M10.1665 16.6666H17.6665M2.6665 16.6666H4.06196C4.46961 16.6666 4.67343 16.6666 4.86525 16.6206C5.03531 16.5798 5.19788 16.5124 5.347 16.421C5.5152 16.318 5.65932 16.1738 5.94758 15.8856L16.4165 5.41663C17.1069 4.72628 17.1069 3.60699 16.4165 2.91663C15.7262 2.22628 14.6069 2.22628 13.9165 2.91663L3.44755 13.3856C3.1593 13.6738 3.01517 13.818 2.9121 13.9862C2.82072 14.1353 2.75338 14.2979 2.71255 14.4679C2.6665 14.6597 2.6665 14.8636 2.6665 15.2712V16.6666Z" stroke="#344054" stroke-width="1.67" stroke-linecap="round" stroke-linejoin="round"/>
</svg>
