<svg width="39" height="49" viewBox="0 0 39 49" fill="none" xmlns="http://www.w3.org/2000/svg">
<path d="M0 0.139893C0 0.139893 0 34.0503 0 37.1548C0 41.9608 3.43925 44.0205 8.2243 44.0205C17.1364 44.0205 19.2 48.1399 19.2 48.1399C19.2 48.1399 21.2635 44.0205 30.1757 44.0205C34.9906 44.0205 38.4 41.9608 38.4 37.1548C38.4 34.0503 38.4 0.139893 38.4 0.139893H0ZM30.2056 42.6175C23.985 42.6175 20.7551 44.5578 19.2299 45.9906C17.6748 44.5578 14.4449 42.6175 8.2542 42.6175C4.84486 42.6175 2.69159 41.5727 1.8243 39.5429L2.3028 39.4832C11.0355 37.9608 19.6785 38.0802 19.6785 38.0802C19.7682 37.7518 19.7981 37.3638 19.9477 36.9757C20.1869 36.3488 20.9944 35.513 22.4 35.513L23.686 35.6026C23.686 34.0503 24.4037 32.6772 25.4804 31.7817C25.5701 31.6921 25.6 31.6623 25.6 31.6623C24.9121 31.6921 24.4635 31.5727 24.4635 31.5727C22.9682 31.4235 22.4 29.9608 21.772 28.0802C21.5626 27.4235 21.3533 26.7369 21.0841 26.0503C20.2467 23.2742 17.1364 22.9459 16.4785 23.4235C13.6374 21.4832 11.1551 23.4533 10.8262 24.1697C11.215 24.1697 11.514 24.4683 11.514 24.8563C11.514 25.125 11.3645 25.3339 11.1551 25.4533L10.6766 25.7518C10.4374 25.9011 10.2579 26.1996 10.2579 26.4981L7.95514 28.3787C7.83551 28.4981 7.71589 28.7668 7.83551 29.0056L9.06168 30.1399C9.12149 29.7518 9.09159 29.4235 9.68972 29.2145C10.7364 28.8862 11.0355 29.3638 11.1252 29.6623C11.185 29.9011 11.185 30.11 11.1252 30.319H11.0355C10.6766 30.1399 10.2579 30.0205 9.80934 30.1399C9.36075 30.2593 9.03177 30.6175 8.82243 30.7369C8.58318 30.8563 8.31402 30.916 8.16448 30.8563C8.07476 30.8265 7.98504 30.7668 7.95514 30.6175C7.89533 30.4682 7.89533 30.2891 7.92523 30.0802C7.74579 30.1996 7.59626 30.3787 7.56635 30.6175C7.50654 30.8563 7.59626 31.1548 7.80561 31.3638C8.01495 31.5727 8.31402 31.6324 8.58318 31.6324C8.85233 31.6324 9.09159 31.5429 9.27103 31.3936C9.30093 31.3638 9.33084 31.3638 9.33084 31.3339C9.30093 31.4533 9.27103 31.5727 9.27103 31.722C9.27103 32.1996 9.51028 32.528 9.77944 32.6474C9.89906 32.7071 10.0785 32.6175 10.0785 32.4384C10.0785 31.6921 10.4673 31.5429 11.1252 31.3339C11.6336 31.1548 12.4411 30.8563 12.9196 30.6772C13.0392 30.6474 13.2785 30.528 13.2785 30.528C13.757 30.319 14.1757 29.9608 14.4748 29.513C14.8935 28.7369 14.9533 28.2891 14.9533 28.2891C14.9832 27.9906 14.9832 27.8115 14.9832 27.8115C15.671 27.8115 15.8804 28.319 15.8505 28.7369C15.7009 29.8712 14.9533 30.5578 14.086 31.4235C13.7271 31.7817 13.2785 32.1399 13.0093 32.4981C12.2019 33.6623 12.0523 35.0056 13.9065 36.0802C13.9963 36.11 14.1458 36.2593 14.2355 36.3488C14.7439 36.9757 14.2654 37.4832 13.9664 37.4832C13.5477 36.8265 13.1589 36.7668 12.9794 36.6772C12.4112 36.4384 11.6635 36.2593 11.2748 35.5429C10.5271 35.9906 9.92897 36.1996 8.7028 36.1996H5.77196C4.93458 36.1996 4.1271 36.7966 4.03738 37.6026C4.00748 37.7518 4.03738 38.2593 4.03738 38.2593C3.25981 38.3488 2.51215 38.4384 1.76449 38.5578L1.49533 38.4981C1.40561 38.0802 1.3757 37.6324 1.3757 37.125V1.51303H37.0841V37.1548C37.0841 37.6623 37.0243 38.11 36.9645 38.528L36.7252 38.4682C35.4991 38.2891 34.4224 38.1399 33.1663 38.0205C33.1663 38.0205 33.3458 37.6324 33.6149 36.916C33.6149 36.916 34.3925 36.6772 34.871 36.1697C35.2299 35.8115 35.4991 35.3936 35.6785 35.0056C35.7981 34.7668 35.8878 34.528 35.9177 34.2593C35.9776 33.8115 35.9177 33.3041 35.7383 32.7369C35.2598 31.4832 34.3327 30.528 32.9869 29.9011C31.9103 29.4235 29.3682 29.2145 29.0392 29.2145C25.8991 29.0653 25.1215 28.528 25.1215 28.528L25.0019 28.4981C24.6131 28.2294 24.3738 27.7817 24.3738 27.3041C24.3738 26.4981 25.0318 25.8414 25.8692 25.8414C25.8991 25.8414 26.4374 25.8115 27.0953 26.3787C27.1252 27.6324 28.142 28.6474 29.3981 28.6474C30.6841 28.6474 31.7009 27.6026 31.7009 26.3488C31.7009 25.722 31.4617 25.1548 31.043 24.7369C31.043 24.8265 31.0729 24.8862 31.0729 24.9757C31.0729 25.9011 30.3252 26.6772 29.3682 26.6772C28.8897 26.6772 28.4411 26.4683 28.142 26.1399C28.142 26.1399 28.0822 26.0802 27.9925 25.9906C26.9757 24.9459 25.9888 24.916 25.8093 24.916C24.4935 24.916 23.4168 25.9906 23.4168 27.3041C23.4168 28.0802 23.7757 28.7966 24.4037 29.2444C24.6131 29.4235 25.5701 30.0205 28.8897 30.1697C29.3981 30.1996 31.671 30.4085 32.5084 30.7668C33.6149 31.2742 34.3925 32.0802 34.7813 33.0653C34.9906 33.6921 34.9607 34.2294 34.7514 34.6474C34.6916 34.7369 34.6318 34.8265 34.542 34.916C34.4224 35.0056 34.3028 35.0653 34.1533 35.0653C33.9439 35.0653 33.7645 34.9757 33.6748 34.7966C33.6449 34.7369 33.585 34.6474 33.585 34.6474C33.3757 34.1996 33.1065 33.6921 32.7776 33.2145C32.2991 32.4981 31.6411 31.9011 30.8336 31.5429C30.8037 31.513 30.7439 31.513 30.714 31.4832C30.2953 31.3041 29.8766 31.1847 29.3981 31.125H29.3682C29.1888 31.0951 28.9794 31.0951 28.8 31.0951H28.6206C26.6766 31.0951 25.1215 32.6474 25.0916 34.5578C25.0916 34.5578 25.0916 34.5578 25.0916 34.5877C25.0916 34.6474 25.0916 34.6772 25.1215 34.7071C25.2112 35.5727 25.929 36.2593 26.7963 36.2593C26.7963 36.2593 27.1252 36.2593 28.8897 36.2593C29.6374 36.2593 29.7271 36.9459 29.7271 36.9459C25.8392 37.4235 24.1944 36.6175 22.5196 36.6175C21.9514 36.6175 21.4729 36.916 21.2336 37.3638C21.2336 37.3638 21.0841 37.6623 21.0542 37.9608C21.0542 38.0205 21.0243 38.11 21.0243 38.11C21.0243 38.11 28.3813 38.2891 36.157 39.4832L36.6654 39.5429C35.7682 41.6026 33.6149 42.6175 30.2056 42.6175ZM9.71962 30.9459C9.71962 30.916 9.71962 30.9459 9.71962 30.9459L9.74953 31.0056C9.71962 31.0056 9.68972 31.0056 9.65981 31.0056C9.68972 30.9757 9.68972 30.9459 9.71962 30.9459Z" fill="white"/>
<path d="M24.7932 16.9458C24.9428 16.5876 24.9428 16.3786 24.554 15.9607C25.0026 15.8115 25.182 16.3786 25.182 16.3786C25.2717 16.0801 25.2418 15.7816 25.2119 15.6025C25.0923 15.1846 24.5241 15.0353 24.0157 15.4234C23.7166 15.6324 23.5371 16.0801 23.2082 16.1697C23.0586 16.1995 21.9222 15.8712 21.9222 15.8712C22.1315 15.5727 22.4306 15.2443 22.4605 14.7965C22.4904 14.3488 22.0418 13.6324 21.3839 13.6025C21.2044 13.6025 21.0549 13.6324 20.9353 13.6921C20.9353 13.6622 20.9652 13.6324 20.9652 13.6025C21.0549 13.3936 21.1745 13.0652 21.3241 12.7667C22.7297 13.4533 24.6437 13.6622 26.3484 13.0055L26.139 12.3488C27.4549 12.7368 28.0829 12.6473 28.7708 12.5876L27.754 11.6324C30.3558 11.9607 31.1334 11.6622 31.9409 11.0055L29.01 9.96072C31.7614 9.96072 33.2568 9.03535 34.4829 7.57266L30.1764 8.08012C33.6755 7.2443 35.2306 5.48311 35.41 3.39355C31.4325 6.79654 25.1521 6.58759 23.6269 6.58759C23.1783 6.58759 22.6699 7.0055 22.6699 7.45326C22.6699 8.16967 23.3278 8.37863 23.3278 9.33385C23.3278 9.81147 22.8792 10.2592 22.3708 10.4085L21.6829 9.99057C21.8026 8.13982 21.6231 6.91594 20.8456 6.73684C20.8456 6.73684 21.8026 6.37863 21.6829 5.48311C20.7558 5.84132 20.2773 5.78161 19.2605 5.78161C17.1072 5.78161 17.1072 7.09505 17.1671 7.39356C17.4063 7.21445 17.7054 7.1249 18.0942 7.1249C18.453 7.1249 18.6325 7.54281 18.6325 7.90102C18.6325 9.0055 17.7054 9.42341 16.9577 10.1398L16.6885 10.3488C16.1203 10.3189 15.5222 9.78162 15.5222 9.27415C15.5222 8.31893 16.1502 8.13982 16.1502 7.45326C16.1502 7.0055 15.6418 6.52788 15.2231 6.61744C13.1297 7.03535 6.61004 6.05027 3.85864 3.54281C4.03808 5.54281 5.77266 7.21445 9.12219 8.02042L4.75584 7.54281C5.92219 8.97565 7.35771 9.84132 10.0493 9.84132L7.26799 10.7965C8.07547 11.4234 8.79322 11.6921 11.3054 11.3936L10.3185 12.3189C10.9764 12.4085 11.6044 12.4682 12.8605 12.11L12.6811 12.7368C14.2362 13.3637 15.7914 13.3339 17.3465 12.6174C17.4661 12.9159 17.6157 13.2443 17.7054 13.513C17.7353 13.5428 17.7353 13.5727 17.7652 13.6025C17.6456 13.5727 17.5259 13.5428 17.3465 13.5428C16.6885 13.5727 16.24 14.2592 16.2699 14.7368C16.2998 15.1846 16.5988 15.513 16.8082 15.8115C16.8082 15.8115 15.6717 16.1398 15.5222 16.11C15.1932 16.0204 15.0138 15.5727 14.7147 15.3637C14.2063 14.9756 13.6381 15.1249 13.5185 15.5428C13.4586 15.7219 13.4287 15.9906 13.5484 16.3189C13.5484 16.3189 13.7577 15.7518 14.1764 15.901C13.7876 16.3189 13.7876 16.5279 13.9371 16.8861C14.2362 16.3488 14.9839 16.3189 15.4923 16.6473C16.2998 17.1548 16.1502 17.513 15.8811 18.0204C16.7185 17.7219 16.8082 17.4831 16.3297 16.5279L17.496 16.0801C17.5857 16.0503 17.6157 15.9607 17.5857 15.8712C17.5259 15.6025 17.4362 15.0652 18.0044 15.0353C18.3035 15.0353 18.4231 15.2443 18.4829 15.4831C18.5128 15.6921 18.5428 15.901 18.5428 16.1398C18.5428 17.4533 17.3764 18.5577 16.9577 18.7965C17.5558 19.1249 18.1241 19.095 18.7222 18.6771C18.8418 19.1548 18.9914 19.4234 19.3801 19.7219C19.7689 19.4234 19.9185 19.1548 20.0381 18.6771C20.6362 19.095 21.1745 19.1249 21.7727 18.7965C21.354 18.5577 20.1876 17.4533 20.1876 16.1398C20.1876 15.9906 20.1876 15.8712 20.2175 15.7518C20.3072 15.4234 20.3671 15.0055 20.7558 15.0353C21.3241 15.0652 21.2343 15.6025 21.1745 15.8712C21.1446 15.9607 21.2044 16.0503 21.2642 16.0801L22.4306 16.5279C21.9521 17.4831 22.0717 17.7219 22.8792 18.0204C22.61 17.513 22.4306 17.1846 23.268 16.6473C23.7465 16.3488 24.4942 16.4085 24.7932 16.9458Z" fill="white"/>
</svg>
