<svg width="70" height="41" viewBox="0 0 70 41" fill="none" xmlns="http://www.w3.org/2000/svg">
<path fill-rule="evenodd" clip-rule="evenodd" d="M5.35679 37.3274C4.12902 37.3274 3.39815 36.5483 3.39815 34.896V28.2892C3.39815 26.5911 4.12902 25.812 5.33266 25.812C6.74857 25.812 7.45773 26.5428 7.55181 28.2434H10.4536C10.3113 24.8688 8.51906 23.0043 5.35679 23.0043C2.19451 23.0043 0.399902 24.8688 0.399902 28.2892V34.896C0.399902 38.2946 2.28858 40.1351 5.35679 40.1351C8.42499 40.1351 10.4077 38.2946 10.5259 34.9442H7.62417C7.50597 36.5965 6.79923 37.3274 5.3592 37.3274" fill="#3D3D3D"/>
<path fill-rule="evenodd" clip-rule="evenodd" d="M24.9335 32.8457C26.3976 32.8457 27.2467 33.5765 27.2467 35.0166C27.2467 36.4566 26.4676 37.1175 24.9576 37.1175H23.3294V32.8457H24.9335ZM26.6799 28.0552C26.6799 29.4012 26.0889 30.1321 24.9094 30.1321H23.327V26.0725H24.8129C26.0865 26.0725 26.6774 26.7334 26.6774 28.0552H26.6799ZM20.4253 23.3347V39.8553H25.4039C28.2598 39.8553 30.2184 37.9666 30.2184 35.0166C30.2184 33.4125 29.4393 32.0424 28.1175 31.3815C29.0606 30.6507 29.6275 29.3529 29.6275 27.937C29.6275 25.1535 27.857 23.3347 25.2615 23.3347H20.4229H20.4253Z" fill="#3D3D3D"/>
<path fill-rule="evenodd" clip-rule="evenodd" d="M44.6017 25.8602C46.0658 25.8602 46.7967 26.8516 46.7967 28.6438V34.5438C46.7967 36.3384 46.0658 37.3274 44.6017 37.3274C43.1375 37.3274 42.3826 36.336 42.3826 34.5438V28.6438C42.3826 26.8492 43.1375 25.8602 44.6017 25.8602ZM44.6017 23.0525C41.3212 23.0525 39.3867 25.1535 39.3867 28.6462V34.5462C39.3867 38.0389 41.3212 40.1399 44.6017 40.1399C47.8822 40.1399 49.795 38.0389 49.795 34.5462V28.6462C49.795 25.1535 47.8605 23.0525 44.6017 23.0525Z" fill="#3D3D3D"/>
<path fill-rule="evenodd" clip-rule="evenodd" d="M59.2939 23.3347V39.8553H62.174L65.5027 32.233C65.9972 31.0993 66.4458 29.7775 66.8704 28.6462L66.9403 28.7161C66.7522 30.4625 66.634 33.152 66.634 34.7102V39.8553H69.4658V23.3347H66.564L63.0472 31.4056C62.5985 32.397 62.1981 33.5307 61.8435 34.4497L61.7736 34.4015C61.9859 32.6069 62.1282 30.1055 62.1282 28.7379V23.3323H59.2964L59.2939 23.3347Z" fill="#3D3D3D"/>
<path fill-rule="evenodd" clip-rule="evenodd" d="M34.9317 18.2307L40.154 9.1853L45.3762 0.139893H34.9317H24.4873L29.7095 9.1853L34.9317 18.2307Z" fill="#FDC72D"/>
</svg>
