<svg width="39" height="49" viewBox="0 0 39 49" fill="none" xmlns="http://www.w3.org/2000/svg">
<path d="M0 0.139893C0 0.139893 0 34.0503 0 37.1548C0 41.9608 3.43925 44.0205 8.2243 44.0205C17.1364 44.0205 19.2 48.1399 19.2 48.1399C19.2 48.1399 21.2635 44.0205 30.1757 44.0205C34.9906 44.0205 38.4 41.9608 38.4 37.1548C38.4 34.0503 38.4 0.139893 38.4 0.139893H0ZM30.2056 42.6175C23.985 42.6175 20.7551 44.5578 19.2299 45.9906C17.6748 44.5578 14.4449 42.6175 8.2542 42.6175C4.84486 42.6175 2.69159 41.5727 1.8243 39.5429L2.3028 39.4832C11.0355 37.9608 19.6785 38.0802 19.6785 38.0802C19.7682 37.7518 19.7981 37.3638 19.9477 36.9757C20.1869 36.3488 20.9944 35.513 22.4 35.513L23.686 35.6026C23.686 34.0503 24.4037 32.6772 25.4804 31.7817C25.5701 31.6921 25.6 31.6623 25.6 31.6623C24.9121 31.6921 24.4635 31.5727 24.4635 31.5727C22.9682 31.4235 22.4 29.9608 21.772 28.0802C21.5626 27.4235 21.3533 26.7369 21.0841 26.0503C20.2467 23.2742 17.1364 22.9459 16.4785 23.4235C13.6374 21.4832 11.1551 23.4533 10.8262 24.1697C11.215 24.1697 11.514 24.4683 11.514 24.8563C11.514 25.125 11.3645 25.3339 11.1551 25.4533L10.6766 25.7518C10.4374 25.9011 10.2579 26.1996 10.2579 26.4981L7.95514 28.3787C7.83551 28.4981 7.71589 28.7668 7.83551 29.0056L9.06168 30.1399C9.12149 29.7518 9.09159 29.4235 9.68972 29.2145C10.7364 28.8862 11.0355 29.3638 11.1252 29.6623C11.185 29.9011 11.185 30.11 11.1252 30.319H11.0355C10.6766 30.1399 10.2579 30.0205 9.80934 30.1399C9.36075 30.2593 9.03177 30.6175 8.82243 30.7369C8.58318 30.8563 8.31402 30.916 8.16448 30.8563C8.07476 30.8265 7.98504 30.7668 7.95514 30.6175C7.89533 30.4682 7.89533 30.2891 7.92523 30.0802C7.74579 30.1996 7.59626 30.3787 7.56635 30.6175C7.50654 30.8563 7.59626 31.1548 7.80561 31.3638C8.01495 31.5727 8.31402 31.6324 8.58318 31.6324C8.85233 31.6324 9.09159 31.5429 9.27103 31.3936C9.30093 31.3638 9.33084 31.3638 9.33084 31.3339C9.30093 31.4533 9.27103 31.5727 9.27103 31.722C9.27103 32.1996 9.51028 32.528 9.77944 32.6474C9.89906 32.7071 10.0785 32.6175 10.0785 32.4384C10.0785 31.6921 10.4673 31.5429 11.1252 31.3339C11.6336 31.1548 12.4411 30.8563 12.9196 30.6772C13.0392 30.6474 13.2785 30.528 13.2785 30.528C13.757 30.319 14.1757 29.9608 14.4748 29.513C14.8935 28.7369 14.9533 28.2891 14.9533 28.2891C14.9832 27.9906 14.9832 27.8115 14.9832 27.8115C15.671 27.8115 15.8804 28.319 15.8505 28.7369C15.7009 29.8712 14.9533 30.5578 14.086 31.4235C13.7271 31.7817 13.2785 32.1399 13.0093 32.4981C12.2019 33.6623 12.0523 35.0056 13.9065 36.0802C13.9963 36.11 14.1458 36.2593 14.2355 36.3488C14.7439 36.9757 14.2654 37.4832 13.9664 37.4832C13.5477 36.8265 13.1589 36.7668 12.9794 36.6772C12.4112 36.4384 11.6635 36.2593 11.2748 35.5429C10.5271 35.9906 9.92897 36.1996 8.7028 36.1996H5.77196C4.93458 36.1996 4.1271 36.7966 4.03738 37.6026C4.00748 37.7518 4.03738 38.2593 4.03738 38.2593C3.25981 38.3488 2.51215 38.4384 1.76449 38.5578L1.49533 38.4981C1.40561 38.0802 1.3757 37.6324 1.3757 37.125V1.51303H37.0841V37.1548C37.0841 37.6623 37.0243 38.11 36.9645 38.528L36.7252 38.4682C35.4991 38.2891 34.4224 38.1399 33.1663 38.0205C33.1663 38.0205 33.3458 37.6324 33.6149 36.916C33.6149 36.916 34.3925 36.6772 34.871 36.1697C35.2299 35.8115 35.4991 35.3936 35.6785 35.0056C35.7981 34.7668 35.8878 34.528 35.9177 34.2593C35.9776 33.8115 35.9177 33.3041 35.7383 32.7369C35.2598 31.4832 34.3327 30.528 32.9869 29.9011C31.9103 29.4235 29.3682 29.2145 29.0392 29.2145C25.8991 29.0653 25.1215 28.528 25.1215 28.528L25.0019 28.4981C24.6131 28.2294 24.3738 27.7817 24.3738 27.3041C24.3738 26.4981 25.0318 25.8414 25.8692 25.8414C25.8991 25.8414 26.4374 25.8115 27.0953 26.3787C27.1252 27.6324 28.142 28.6474 29.3981 28.6474C30.6841 28.6474 31.7009 27.6026 31.7009 26.3488C31.7009 25.722 31.4617 25.1548 31.043 24.7369C31.043 24.8265 31.0729 24.8862 31.0729 24.9757C31.0729 25.9011 30.3252 26.6772 29.3682 26.6772C28.8897 26.6772 28.4411 26.4683 28.142 26.1399C28.142 26.1399 28.0822 26.0802 27.9925 25.9906C26.9757 24.9459 25.9888 24.916 25.8093 24.916C24.4935 24.916 23.4168 25.9906 23.4168 27.3041C23.4168 28.0802 23.7757 28.7966 24.4037 29.2444C24.6131 29.4235 25.5701 30.0205 28.8897 30.1697C29.3981 30.1996 31.671 30.4085 32.5084 30.7668C33.6149 31.2742 34.3925 32.0802 34.7813 33.0653C34.9906 33.6921 34.9607 34.2294 34.7514 34.6474C34.6916 34.7369 34.6318 34.8265 34.542 34.916C34.4224 35.0056 34.3028 35.0653 34.1533 35.0653C33.9439 35.0653 33.7645 34.9757 33.6748 34.7966C33.6449 34.7369 33.585 34.6474 33.585 34.6474C33.3757 34.1996 33.1065 33.6921 32.7776 33.2145C32.2991 32.4981 31.6411 31.9011 30.8336 31.5429C30.8037 31.513 30.7439 31.513 30.714 31.4832C30.2953 31.3041 29.8766 31.1847 29.3981 31.125H29.3682C29.1888 31.0951 28.9794 31.0951 28.8 31.0951H28.6206C26.6766 31.0951 25.1215 32.6474 25.0916 34.5578C25.0916 34.5578 25.0916 34.5578 25.0916 34.5877C25.0916 34.6474 25.0916 34.6772 25.1215 34.7071C25.2112 35.5727 25.929 36.2593 26.7963 36.2593C26.7963 36.2593 27.1252 36.2593 28.8897 36.2593C29.6374 36.2593 29.7271 36.9459 29.7271 36.9459C25.8392 37.4235 24.1944 36.6175 22.5196 36.6175C21.9514 36.6175 21.4729 36.916 21.2336 37.3638C21.2336 37.3638 21.0841 37.6623 21.0542 37.9608C21.0542 38.0205 21.0243 38.11 21.0243 38.11C21.0243 38.11 28.3813 38.2891 36.157 39.4832L36.6654 39.5429C35.7682 41.6026 33.6149 42.6175 30.2056 42.6175ZM9.71962 30.9459C9.71962 30.916 9.71962 30.9459 9.71962 30.9459L9.74953 31.0056C9.71962 31.0056 9.68972 31.0056 9.65981 31.0056C9.68972 30.9757 9.68972 30.9459 9.71962 30.9459Z" fill="#667085"/>
<path d="M24.7935 16.9458C24.943 16.5876 24.943 16.3786 24.5542 15.9607C25.0028 15.8115 25.1823 16.3786 25.1823 16.3786C25.272 16.0801 25.2421 15.7816 25.2122 15.6025C25.0925 15.1846 24.5243 15.0353 24.0159 15.4234C23.7168 15.6323 23.5374 16.0801 23.2084 16.1697C23.0589 16.1995 21.9224 15.8712 21.9224 15.8712C22.1318 15.5726 22.4308 15.2443 22.4608 14.7965C22.4907 14.3488 22.0421 13.6323 21.3841 13.6025C21.2047 13.6025 21.0551 13.6323 20.9355 13.692C20.9355 13.6622 20.9654 13.6323 20.9654 13.6025C21.0551 13.3935 21.1748 13.0652 21.3243 12.7667C22.7299 13.4532 24.6439 13.6622 26.3486 13.0055L26.1393 12.3488C27.4552 12.7368 28.0832 12.6473 28.771 12.5876L27.7542 11.6323C30.3561 11.9607 31.1337 11.6622 31.9411 11.0055L29.0103 9.96071C31.7617 9.96071 33.257 9.03533 34.4832 7.57264L30.1766 8.08011C33.6757 7.24429 35.2309 5.48309 35.4103 3.39354C31.4327 6.79653 25.1523 6.58757 23.6271 6.58757C23.1785 6.58757 22.6701 7.00548 22.6701 7.45324C22.6701 8.16966 23.328 8.37861 23.328 9.33384C23.328 9.81145 22.8794 10.2592 22.371 10.4085L21.6832 9.99056C21.8028 8.13981 21.6234 6.91593 20.8458 6.73682C20.8458 6.73682 21.8028 6.37861 21.6832 5.48309C20.7561 5.8413 20.2776 5.7816 19.2608 5.7816C17.1075 5.7816 17.1075 7.09503 17.1673 7.39354C17.4066 7.21444 17.7056 7.12488 18.0944 7.12488C18.4533 7.12488 18.6327 7.54279 18.6327 7.901C18.6327 9.00548 17.7056 9.42339 16.958 10.1398L16.6888 10.3488C16.1206 10.3189 15.5224 9.7816 15.5224 9.27414C15.5224 8.31891 16.1505 8.13981 16.1505 7.45324C16.1505 7.00548 15.6421 6.52787 15.2234 6.61742C13.1299 7.03533 6.61029 6.05026 3.85889 3.54279C4.03833 5.54279 5.77291 7.21444 9.12244 8.02041L4.75608 7.54279C5.92244 8.97563 7.35795 9.8413 10.0495 9.8413L7.26823 10.7965C8.07571 11.4234 8.79347 11.692 11.3056 11.3935L10.3187 12.3189C10.9766 12.4085 11.6047 12.4682 12.8608 12.11L12.6813 12.7368C14.2365 13.3637 15.7916 13.3338 17.3467 12.6174C17.4664 12.9159 17.6159 13.2443 17.7056 13.5129C17.7355 13.5428 17.7355 13.5726 17.7654 13.6025C17.6458 13.5726 17.5262 13.5428 17.3467 13.5428C16.6888 13.5726 16.2402 14.2592 16.2701 14.7368C16.3 15.1846 16.5991 15.5129 16.8084 15.8115C16.8084 15.8115 15.672 16.1398 15.5224 16.11C15.1935 16.0204 15.014 15.5726 14.715 15.3637C14.2066 14.9756 13.6383 15.1249 13.5187 15.5428C13.4589 15.7219 13.429 15.9906 13.5486 16.3189C13.5486 16.3189 13.758 15.7518 14.1766 15.901C13.7879 16.3189 13.7879 16.5279 13.9374 16.8861C14.2365 16.3488 14.9841 16.3189 15.4925 16.6473C16.3 17.1547 16.1505 17.5129 15.8813 18.0204C16.7187 17.7219 16.8084 17.4831 16.3299 16.5279L17.4963 16.0801C17.586 16.0503 17.6159 15.9607 17.586 15.8712C17.5262 15.6025 17.4365 15.0652 18.0047 15.0353C18.3037 15.0353 18.4234 15.2443 18.4832 15.4831C18.5131 15.692 18.543 15.901 18.543 16.1398C18.543 17.4532 17.3766 18.5577 16.958 18.7965C17.5561 19.1249 18.1243 19.095 18.7224 18.6771C18.8421 19.1547 18.9916 19.4234 19.3804 19.7219C19.7692 19.4234 19.9187 19.1547 20.0383 18.6771C20.6365 19.095 21.1748 19.1249 21.7729 18.7965C21.3542 18.5577 20.1879 17.4532 20.1879 16.1398C20.1879 15.9906 20.1879 15.8712 20.2178 15.7518C20.3075 15.4234 20.3673 15.0055 20.7561 15.0353C21.3243 15.0652 21.2346 15.6025 21.1748 15.8712C21.1449 15.9607 21.2047 16.0503 21.2645 16.0801L22.4309 16.5279C21.9523 17.4831 22.072 17.7219 22.8794 18.0204C22.6103 17.5129 22.4309 17.1846 23.2682 16.6473C23.7467 16.3488 24.4944 16.4085 24.7935 16.9458Z" fill="#667085"/>
</svg>
