<svg width="20" height="20" viewBox="0 0 20 20" fill="none" xmlns="http://www.w3.org/2000/svg">
<g clip-path="url(#clip0_434_1193)">
<circle cx="10" cy="10" r="10" fill="#2787F5"/>
<path fill-rule="evenodd" clip-rule="evenodd" d="M9.88069 13.2155H10.5449C10.5449 13.2155 10.7454 13.1946 10.8478 13.09C10.9423 12.9935 10.9392 12.8128 10.9392 12.8128C10.9392 12.8128 10.9262 11.9669 11.3397 11.8421C11.7474 11.7191 12.2711 12.6597 12.8259 13.0214C13.2457 13.2952 13.5646 13.2352 13.5646 13.2352L15.0484 13.2155C15.0484 13.2155 15.8244 13.1701 15.4564 12.5908C15.4262 12.5435 15.2418 12.162 14.3532 11.3787C13.4226 10.5588 13.5474 10.6914 14.6682 9.27287C15.3505 8.40939 15.6235 7.88192 15.538 7.65618C15.4568 7.44087 14.955 7.49786 14.955 7.49786L13.2841 7.50755C13.2841 7.50755 13.1601 7.49153 13.0683 7.54368C12.9789 7.59472 12.9212 7.71392 12.9212 7.71392C12.9212 7.71392 12.6564 8.3822 12.3041 8.95065C11.5602 10.1501 11.2625 10.2135 11.1408 10.139C10.858 9.96536 10.9286 9.44199 10.9286 9.06985C10.9286 7.90725 11.1146 7.42262 10.5673 7.29708C10.3856 7.25573 10.2518 7.22817 9.78732 7.2237C9.19138 7.21774 8.68685 7.22519 8.40124 7.35817C8.21096 7.44646 8.06423 7.64351 8.15368 7.65469C8.26392 7.66885 8.51423 7.71876 8.64683 7.89012C8.81789 8.11139 8.812 8.60794 8.812 8.60794C8.812 8.60794 8.91048 9.97616 8.5821 10.1464C8.35691 10.2626 8.04815 10.025 7.38473 8.93649C7.04497 8.37922 6.78839 7.76309 6.78839 7.76309C6.78839 7.76309 6.73896 7.64798 6.65069 7.58615C6.54358 7.51165 6.39411 7.48781 6.39411 7.48781L4.80637 7.49786C4.80637 7.49786 4.56823 7.5042 4.48074 7.60254C4.40267 7.69008 4.47446 7.87112 4.47446 7.87112C4.47446 7.87112 5.71735 10.6322 7.12461 12.0235C8.41536 13.2993 9.88069 13.2155 9.88069 13.2155Z" fill="white"/>
</g>
<defs>
<clipPath id="clip0_434_1193">
<rect width="20" height="20" fill="white"/>
</clipPath>
</defs>
</svg>
